<?xml version="1.0" encoding="UTF-8" standalone="no"?>
<svg
   version="1.1"
   width="1133.8583"
   height="850.39368"
   id="svg87"
   viewBox="0 0 1133.8583 850.39368"
   sodipodi:docname="Bear Brand.cdr"
   xmlns:inkscape="http://www.inkscape.org/namespaces/inkscape"
   xmlns:sodipodi="http://sodipodi.sourceforge.net/DTD/sodipodi-0.dtd"
   xmlns="http://www.w3.org/2000/svg"
   xmlns:svg="http://www.w3.org/2000/svg">
  <defs
     id="defs91" />
  <sodipodi:namedview
     id="namedview89"
     pagecolor="#ffffff"
     bordercolor="#666666"
     borderopacity="1.0"
     inkscape:pageshadow="2"
     inkscape:pageopacity="0.0"
     inkscape:pagecheckerboard="0" />
  <g
     id="Layer1000">
    <path
       d="M 0,0 V 850.3937 H 1133.8583 V 0 Z"
       style="fill:none"
       id="path2" />
    <g
       id="Layer1001">
      <path
         d="m 316.575,82.0172 h 500.7074 v 448.5863 c 0,130.7813 -107.0974,237.773 -237.8787,237.773 h -24.95 c -130.7812,0 -237.8787,-106.9917 -237.8787,-237.773 z"
         style="fill:#ffffff;fill-rule:evenodd"
         id="path4" />
      <path
         d="M 817.2824,80.5487 H 315.1066 v 450.0548 c 0,63.6375 24.9766,123.6445 70.3271,168.9684 45.3439,45.3164 105.3701,70.2731 169.02,70.2731 h 24.95 c 63.6499,0 123.6753,-24.9567 169.0192,-70.2731 45.3513,-45.3239 70.328,-105.3309 70.328,-168.9684 V 80.5487 Z m -1.4685,2.937 c 0,2.917 0,447.1178 0,447.1178 0,62.8525 -24.6703,122.1227 -69.4672,166.8906 -44.7886,44.7628 -104.0781,69.4139 -166.943,69.4139 h -24.95 c -62.8657,0 -122.1543,-24.6511 -166.9429,-69.4139 -44.7978,-44.7679 -69.4673,-104.0381 -69.4673,-166.8906 0,0 0,-444.2008 0,-447.1178 2.9103,0 494.8593,0 497.7704,0 z"
         style="fill:#004394;fill-rule:evenodd"
         id="path6" />
      <path
         d="m 440.272,123.5667 c 93.9885,25.5868 186.496,-31.1877 269.4884,7.5072 0,33.4088 -0.9507,66.9232 -0.9507,100.332 -83.6284,-39.8588 -183.6407,19.4531 -268.5377,-6.8721 0,-33.6202 0,-67.3478 0,-100.9671 z"
         style="fill:#004394;fill-rule:evenodd"
         id="path8" />
      <path
         d="m 738.623,204.0225 c -0.8458,1.7982 -2.2194,3.1718 -4.0175,4.1241 -1.6907,1.0556 -3.4881,1.5859 -5.4968,1.5859 v 1.7956 c 3.5954,-0.1049 6.6606,-1.3736 9.0931,-3.9101 2.5365,-2.5374 3.6995,-5.6025 3.6995,-9.1997 0,-2.3259 -0.5295,-4.4395 -1.6924,-6.5532 -1.163,-2.0104 -2.6423,-3.5962 -4.7576,-4.7575 -2.0079,-1.1647 -4.1224,-1.7982 -6.3426,-1.7982 v 1.7982 c 3.066,0 5.6025,1.1613 7.8227,3.3823 2.1145,2.2202 3.1717,4.8633 3.1717,7.9284 0,1.9047 -0.422,3.8061 -1.4801,5.6042 z m -9.5143,-5.0747 v -1.5859 h 0.1049 1.4801 c 2.1145,0.1058 3.1717,-0.74 3.1717,-2.3259 0,-1.585 -1.0572,-2.3259 -3.2766,-2.3259 h -1.4801 V 191.23 h 1.903 c 3.066,0 4.6519,1.2695 4.6519,3.806 0,2.3259 -1.2695,3.7012 -3.9118,3.9118 -0.1066,0 -0.3172,0 -0.6344,0 l 4.4396,6.6606 h -2.1136 l -4.1241,-6.6606 z m 0,10.7847 c -2.0088,0 -3.8069,-0.5303 -5.4976,-1.5859 -1.6925,-0.9523 -3.066,-2.3259 -4.0184,-4.1241 -1.0564,-1.6915 -1.4793,-3.5937 -1.4793,-5.6042 -0.1049,-3.0651 0.9507,-5.7082 3.1717,-7.9284 2.1153,-2.221 4.7568,-3.2766 7.8236,-3.3823 v -1.7982 c -2.3276,0 -4.4412,0.6335 -6.4483,1.7982 -2.0104,1.1613 -3.5963,2.8537 -4.6519,4.8624 -1.1646,2.0088 -1.6924,4.1224 -1.6924,6.4483 0,2.326 0.5278,4.5478 1.6924,6.5566 1.1613,2.0079 2.7472,3.5938 4.7568,4.7576 1.9022,1.1621 4.0158,1.7956 6.3434,1.7956 z m 0,-18.5025 v 1.4801 h -3.0668 l 0.1057,4.6518 h 2.9611 v 1.5859 h -2.9611 v 6.6606 h -1.7965 L 724.2446,191.23 Z"
         style="fill:#004394;fill-rule:evenodd"
         id="path10" />
      <path
         d="m 593.9928,174.1027 5.7099,-0.1049 c 0,0 2.1136,-1.1638 1.4801,-3.5963 -0.6335,-2.6414 -4.3346,-10.465 -19.0303,-10.8895 -10.4658,-0.3155 -17.9722,5.9222 -18.1836,14.4858 -0.1058,4.7567 2.8537,9.5151 11.8394,11.8411 8.353,2.1145 7.9301,1.5858 11.841,3.0651 5.4977,2.0096 2.9611,8.5637 -4.4395,8.035 -12.2632,-0.9523 -6.7664,-6.1319 -11.8411,-6.3442 -3.066,0 -5.9197,0.1065 -5.9197,0.1065 0,0 -3.5946,-0.2114 -2.7488,3.066 0.9507,3.1717 4.5453,11.6288 17.4436,12.4754 14.4825,0.9516 21.8848,-5.9197 22.3069,-13.322 0.4237,-8.1391 -4.3339,-12.0508 -14.6956,-14.4833 -10.3601,-2.5374 -10.2544,-2.4317 -11.4174,-3.9118 -1.4801,-1.9022 -0.318,-3.9118 0.4221,-4.5453 2.7496,-2.2202 10.1495,-2.0088 12.7934,0.7401 1.7965,1.7964 1.4801,3.2774 4.4396,3.3823 z"
         style="fill:#ffffff;fill-rule:evenodd"
         id="path12" />
      <path
         d="m 538.1722,168.6051 c 9.9373,0.1057 10.2553,8.9865 10.2553,8.9865 h -10.2553 v 8.8808 h 19.241 c 0,0 2.9611,0.5286 3.384,-3.3832 v -0.1057 -1.5859 c -0.3181,-6.0254 -3.8061,-21.5668 -21.6734,-21.9897 -0.318,-0.1065 -0.6352,-0.1065 -0.9516,0 z m 0,37.8499 v -10.256 c 3.593,0 6.9778,-1.5859 8.0359,-2.8537 2.4308,-2.8554 3.4872,-2.644 3.4872,-2.644 h 8.1424 c 1.9014,0.318 1.0556,3.1718 1.0556,3.1718 -3.1709,8.7759 -11.9451,12.8983 -20.7211,12.5819 z M 537.96,168.6051 h 0.2122 v -9.1972 c -19.3474,0.2106 -28.1233,21.3554 -19.4531,36.051 4.124,7.0835 11.7353,10.6773 19.4531,10.9961 v -10.256 c -4.2289,-0.1066 -8.7759,-2.3259 -10.3617,-9.6209 l 10.3617,-0.1057 v -8.8808 h -10.3617 c 0,0 1.5858,-8.8808 10.1495,-8.9865 z"
         style="fill:#ffffff;fill-rule:evenodd"
         id="path14" />
      <path
         d="m 463.9541,144.0771 c 0,0 -2.8554,0.1057 -3.3832,3.5946 l 0.1066,54.5527 c 0,0 0.2106,3.5963 3.2766,3.384 0,0 3.9118,0 6.1311,0 1.0573,0 3.1726,0.1066 3.2775,-3.4889 l -0.1049,-37.6368 21.3562,38.5875 c 0,0 2.2194,2.7505 5.0748,3.066 h 8.353 c 0,0 3.3823,0 3.4872,-4.0167 l -0.1049,-47.8929 85.9527,-0.3172 c 0,0 2.748,0.2115 2.748,-3.066 v -5.287 c 0,0 -0.2115,-2.4316 -2.4309,-2.4316 l -94.5163,0.2123 c 0,0 -3.7003,0 -3.7003,3.6995 l 0.1049,38.1663 -20.9333,-37.214 c 0,0 -1.9022,-3.9118 -5.3911,-3.9118 z"
         style="fill:#ffffff;fill-rule:evenodd"
         id="path16" />
      <path
         d="m 538.1722,168.6051 c 9.9373,0.1057 10.2553,8.9865 10.2553,8.9865 h -10.2553 v 8.8808 h 19.241 c 0,0 2.9611,0.5286 3.384,-3.3832 v -0.1057 -1.5859 c -0.3181,-6.0254 -3.8061,-21.5668 -21.6734,-21.9897 -0.318,-0.1065 -0.6352,-0.1065 -0.9516,0 z m 0,37.8499 v -10.256 c 3.593,0 6.9778,-1.5859 8.0359,-2.8537 2.4308,-2.8554 3.4872,-2.644 3.4872,-2.644 h 8.1424 c 1.9014,0.318 1.0556,3.1718 1.0556,3.1718 -3.1709,8.7759 -11.9451,12.8983 -20.7211,12.5819 z M 537.96,168.6051 h 0.2122 v -9.1972 c -19.3474,0.2106 -28.1233,21.3554 -19.4531,36.051 4.124,7.0835 11.7353,10.6773 19.4531,10.9961 v -10.256 c -4.2289,-0.1066 -8.7759,-2.3259 -10.3617,-9.6209 l 10.3617,-0.1057 v -8.8808 h -10.3617 c 0,0 1.5858,-8.8808 10.1495,-8.9865 z"
         style="fill:#ffffff;fill-rule:evenodd"
         id="path18" />
      <path
         d="m 607.3148,160.6766 v -14.0613 c 0,0 0.6335,-2.4325 2.6439,-2.5382 4.1216,-0.2106 6.4475,0 6.4475,0 0,0 2.644,0.2123 2.7497,2.6439 v 14.1662 l 7.1884,-0.1049 c 0,0 3.4889,-0.318 3.4889,3.066 0,2.0079 0,2.4308 0,2.4308 0,0 0.1065,3.0669 -3.3824,3.0669 -3.3831,-0.1058 -7.1884,0 -7.1884,0 v 20.6153 c 0,0 0,4.7575 4.756,5.8156 4.7584,0.9515 6.1336,1.1621 6.1336,3.1709 0,2.0088 0,3.5946 0,3.5946 0,0 -0.2123,3.066 -7.8236,3.066 -7.6129,0 -14.9079,-6.45 -14.9079,-15.2242 0,-8.8808 0,-21.0382 0,-21.0382 h -3.384 c 0,0 -1.3735,-0.3181 -1.6907,-2.0096 -0.1066,-0.6344 -0.1066,-3.8061 0,-4.8633 0.1049,-1.3753 2.1153,-1.7965 2.1153,-1.7965 z"
         style="fill:#ffffff;fill-rule:evenodd"
         id="path20" />
      <path
         d="m 642.2029,205.1855 c 1.1646,0 2.7488,-0.6352 2.7488,-2.8545 l -0.1049,-55.61 c -0.8458,-2.5382 -11.6288,-2.5382 -12.1583,0 l 0.1049,55.8214 c 0.1058,1.903 1.4793,2.6431 2.644,2.6431 1.1629,0 5.709,0 6.7655,0 z"
         style="fill:#ffffff;fill-rule:evenodd"
         id="path22" />
      <path
         d="m 632.6885,149.8928 v -3.1718 c 0,0 0.1049,-2.5382 2.4309,-2.7504 h 7.19 c 0,0 2.2194,-0.2107 2.4317,2.2218 l 0.1057,3.7004 z"
         style="fill:#ffffff;fill-rule:evenodd"
         id="path24" />
      <path
         d="m 688.9336,154.4389 c 1.9022,0 3.4881,-1.7982 3.4881,-4.0184 0.5294,-6.7654 -0.7392,-7.4006 -3.7003,-7.6112 l -34.7832,3.5937 c -2.0071,0 -3.4889,1.7982 -3.4889,4.1241 0,2.2194 1.5867,4.0175 3.4889,4.0175 z"
         style="fill:#ffffff;fill-rule:evenodd"
         id="path26" />
      <path
         d="m 671.172,168.6051 c 9.9372,0.1057 10.3601,8.8808 10.3601,8.8808 l -10.3601,0.1057 v 8.8808 h 19.2409 c 0,0 2.9603,0.4229 3.384,-3.3832 v -0.2123 -1.3735 c -0.318,-6.0255 -3.7011,-21.7792 -21.6725,-22.202 -0.3189,0 -0.6352,0 -0.9524,0 z m 0,37.8499 v -10.3626 c 3.5938,0.1066 6.9778,-1.4793 8.0342,-2.8529 2.4325,-2.7496 3.4889,-2.5382 3.4889,-2.5382 l 8.1407,-0.1065 c 1.9031,0.4245 1.0573,3.1725 1.0573,3.1725 -3.1717,8.8817 -11.9468,13.0041 -20.7211,12.6877 z m -0.2123,-37.8499 h 0.2123 v -9.3037 c -19.3474,0.3171 -28.1234,21.3562 -19.4532,36.1575 4.1224,6.9778 11.8419,10.6773 19.4532,10.9961 v -10.3626 c -4.2298,0 -8.6693,-2.2193 -10.3617,-9.62 h 10.3617 v -8.8808 h -10.3617 c 0,0 1.5858,-8.9865 10.1494,-8.9865 z"
         style="fill:#ffffff;fill-rule:evenodd"
         id="path28" />
      <g
         id="Layer1002">
        <path
           d="m 628.4596,259.8447 5.4976,1.4793 c 5.1797,1.3753 8.88,2.8563 10.9945,4.3364 2.1153,1.4801 3.5954,3.5938 4.4412,6.2377 0.7401,2.5365 0.7401,5.2862 0,8.2456 -0.9523,3.5946 -2.8554,6.3435 -5.6042,8.1416 -2.8537,1.7956 -6.4483,2.4308 -10.8895,1.9022 1.7981,1.7981 3.1725,3.7003 4.2306,5.4976 0.9507,1.9039 2.1136,5.0748 3.3815,9.4095 l 3.4897,11.1018 -11.8419,-3.066 -3.6995,-10.9953 v -20.2998 c 2.6431,0.6343 4.4396,0.9523 5.3919,0.8466 1.2679,0 2.3259,-0.5294 3.2783,-1.2695 0.9507,-0.8458 1.5858,-1.903 2.0071,-3.3823 0.4229,-1.6924 0.3188,-3.066 -0.3164,-4.3347 -0.5294,-1.2695 -1.6907,-2.2219 -3.1725,-2.9611 -0.7393,-0.3163 -3.1701,-0.9515 -7.0819,-2.0079 h -0.1065 z m -28.3348,44.6163 13.1106,-48.7395 15.2242,4.1232 v 8.8817 l -7.6113,-2.1153 -3.2783,12.3697 7.1884,2.0087 c 1.3753,0.3188 2.6431,0.6344 3.7012,0.8458 v 20.2998 l -0.5286,-1.5858 c -1.4802,-4.4413 -2.6431,-7.2967 -3.2766,-8.5637 -0.636,-1.1646 -1.4802,-2.1153 -2.4325,-2.7488 -0.9524,-0.7417 -2.5382,-1.2695 -4.7576,-1.903 l -2.0096,-0.5295 -5.496,20.299 z"
           style="fill:#004394;fill-rule:evenodd"
           id="path30" />
        <path
           d="m 759.9809,333.5343 12.1574,14.0604 c 2.7488,3.1717 4.6519,5.8165 5.6034,7.9301 1.2678,2.7488 1.7973,5.71 1.4801,8.7759 -0.318,3.066 -1.2687,6.0255 -3.066,8.9849 -1.6916,2.9611 -4.3347,5.9222 -7.9293,9.0931 -3.066,2.6431 -6.132,4.6535 -9.0914,5.8148 -2.3259,0.9523 -4.6518,1.5859 -6.8737,1.7981 v -9.9388 c 0.6352,-0.2107 1.163,-0.4229 1.7973,-0.6335 2.1145,-0.9516 4.7576,-2.7497 7.6129,-5.2871 2.9611,-2.6431 4.9682,-4.8633 6.1312,-6.6597 1.163,-1.9039 1.6924,-3.7012 1.7973,-5.392 0.1057,-1.7981 -0.3155,-3.4897 -1.2679,-5.1821 -0.74,-1.2678 -2.4316,-3.4872 -5.1813,-6.5532 l -2.9594,-3.4906 -7.9301,6.8729 v -13.5318 z m -7.7195,56.4573 c -1.163,0.1058 -2.2194,0.1058 -3.3823,0 -2.4325,-0.2122 -5.0748,-1.1646 -7.7179,-2.7504 -2.0087,-1.2679 -4.2298,-3.2767 -6.7671,-6.132 l -12.5803,-14.4825 30.4476,-26.431 v 13.5318 l -17.3379,15.0128 5.0731,5.7099 c 1.799,2.2194 3.2783,3.6995 4.3363,4.4396 1.3744,0.9523 2.8537,1.4801 4.3339,1.6924 1.058,0.1057 2.2202,-0.1065 3.5946,-0.5294 z"
           style="fill:#004394;fill-rule:evenodd"
           id="path32" />
        <path
           d="m 501.064,257.6245 c 4.333,-0.8458 7.717,-1.1629 9.9372,-0.9523 2.6431,0.4246 4.8641,1.4818 6.8712,3.384 1.9047,2.0079 3.2783,4.4396 3.9118,7.2949 0.8466,3.7012 0.4237,6.9778 -1.1629,9.9389 -1.5859,2.8537 -4.5453,5.0731 -8.6677,6.7655 2.4299,0.7401 4.5453,1.6924 6.2377,2.8554 1.7964,1.1629 4.2273,3.3823 7.5055,6.6606 l 8.2465,8.2448 -11.8402,2.7505 -9.7283,-9.0923 c -3.3823,-3.1725 -5.7083,-5.1813 -6.8712,-6.0271 -1.163,-0.74 -2.326,-1.1621 -3.4889,-1.2678 -0.2115,-0.1058 -0.5295,-0.1058 -0.9507,-0.1058 v -8.5644 c 4.4396,-1.0581 7.0818,-1.9039 8.1391,-2.5374 1.1638,-0.6343 1.9038,-1.5867 2.3259,-2.748 0.4246,-1.0581 0.5286,-2.4316 0.2123,-3.9118 -0.4229,-1.5858 -1.163,-2.8553 -2.3259,-3.7011 -1.0581,-0.7401 -2.4325,-1.163 -4.1241,-1.0564 -0.6343,0.1057 -2.0079,0.3163 -4.2273,0.8458 z m -11.3141,54.3421 -11.4174,-49.0567 20.9334,-4.8625 c 0.6335,-0.1049 1.2687,-0.3171 1.7981,-0.4229 v 8.776 c -0.8466,0.2106 -1.9047,0.4212 -3.066,0.74 l -7.7195,1.7965 2.8554,12.3713 7.2949,-1.6924 0.6352,-0.1065 v 8.5644 c -1.0589,0.1058 -2.4325,0.3164 -4.1241,0.6336 l -2.0095,0.5294 4.7584,20.5096 z"
           style="fill:#004394;fill-rule:evenodd"
           id="path34" />
        <path
           d="m 488.3763,312.3903 -10.1503,4.5462 -8.6694,-8.6702 -13.4261,5.9197 v -9.3037 l 6.9778,-3.066 -6.9778,-7.1884 v -13.5318 z m -32.2458,1.7957 -4.969,2.221 0.8458,12.1591 -9.8323,4.4395 -2.6431,-54.1297 9.8315,-4.3364 6.7671,6.5566 v 13.5318 l -6.9777,-7.0835 1.3752,19.8761 5.6025,-2.5382 z"
           style="fill:#004394;fill-rule:evenodd"
           id="path36" />
        <path
           d="m 409.7169,357.4287 -30.1304,-40.3865 29.9198,-22.4143 5.0748,6.8729 -21.7792,16.2814 6.6606,8.9857 20.2982,-15.1185 5.0756,6.7672 -20.299,15.1177 8.2456,10.9944 22.6249,-16.8084 5.0764,6.7655 z"
           style="fill:#004394;fill-rule:evenodd"
           id="path38" />
        <path
           d="m 381.278,335.5439 c 0.7401,1.1613 1.2679,2.3259 1.5859,3.6995 0.5278,2.3259 0.4221,4.5452 -0.4237,6.7671 2.8562,-1.5858 5.4976,-2.2219 8.2481,-1.903 2.7472,0.3172 5.0731,1.4793 7.1884,3.4872 1.6907,1.5859 2.8545,3.5963 3.7012,5.8165 0.8441,2.3259 1.0555,4.5453 0.74,6.7655 -0.4245,2.2193 -1.3752,4.4404 -3.066,6.5557 -1.058,1.3736 -3.8077,4.4396 -8.2481,9.0914 l -9.7258,10.0438 v -12.2632 l 5.2862,-5.3919 c 2.5382,-2.6439 4.1241,-4.4412 4.6519,-5.2862 0.8458,-1.2703 1.1629,-2.6439 1.0581,-4.0175 -0.1066,-1.4801 -0.7418,-2.7505 -2.0105,-4.0183 -1.1613,-1.0581 -2.3259,-1.6916 -3.5937,-1.9022 -1.2687,-0.2115 -2.5382,0 -3.9118,0.7392 -0.318,0.1049 -0.8458,0.5295 -1.4802,0.9507 z m -8.353,-5.392 c 0.4238,0 0.8466,0.1058 1.2695,0.2107 2.008,0.5294 3.8061,1.4801 5.2854,2.9611 0.7401,0.74 1.3744,1.4801 1.7981,2.2202 v 19.1343 c -1.2686,1.0589 -3.0659,2.7505 -5.287,4.9707 l -3.066,3.2774 v -12.1599 c 0.4238,-0.5278 0.7401,-0.9507 0.9515,-1.267 1.0581,-1.3744 1.5859,-2.7497 1.5859,-4.2306 0,-1.3736 -0.6343,-2.6414 -1.7973,-3.8061 -0.2106,-0.2106 -0.5286,-0.4212 -0.7401,-0.6335 z m 8.353,55.7157 -2.2193,2.3259 -6.1337,-5.9197 V 368.106 l 7.0844,6.872 1.2686,-1.3736 z m -15.6471,-54.6584 c 0.9524,-0.4238 1.903,-0.7418 2.8537,-0.9515 1.3753,-0.318 2.8546,-0.318 4.4404,-0.1058 v 10.6773 c -0.9507,-0.6335 -1.9022,-1.0564 -2.8545,-1.0564 -1.3736,-0.1065 -2.6414,0.4229 -4.0167,1.5842 -0.1057,0 -0.2106,0.2123 -0.4229,0.318 z m 7.2941,51.0646 -7.2941,-6.9778 v -17.0224 l 3.2783,-3.2766 c 1.7965,-1.9047 3.0651,-3.2782 4.0158,-4.2306 v 12.1599 l -2.6422,2.6423 2.6422,2.5374 z m -30.1313,-29.0749 13.9547,-14.5891 c 2.7505,-2.8553 4.9707,-4.8641 6.5566,-6.0262 0.7401,-0.5303 1.5858,-1.0581 2.3259,-1.3744 v 10.4658 c -0.9523,0.9524 -2.8554,2.8537 -5.7099,5.8148 l -4.0167,4.1232 8.353,8.1416 1.3736,-1.481 v 17.0224 z"
           style="fill:#004394;fill-rule:evenodd"
           id="path40" />
        <path
           d="m 690.0958,340.512 31.9294,-39.0112 7.717,6.2385 -5.3911,39.2219 21.3562,-26.113 7.2958,6.0255 -32.0351,39.0129 -7.8236,-6.45 5.0747,-38.3777 -20.8284,25.4802 z"
           style="fill:#004394;fill-rule:evenodd"
           id="path42" />
        <path
           d="m 689.6729,339.7728 -9.9372,-5.0756 1.3735,-12.2631 -4.1224,-2.0104 v -9.5143 l 4.9691,2.5365 2.3259,-19.8744 -7.295,6.7655 v -12.582 l 7.9285,-7.0827 9.6217,4.9691 z m -12.6861,-19.3491 -13.8506,-7.0819 -8.9857,8.3522 -9.6217,-4.9698 32.458,-28.9692 v 12.582 l -7.2949,6.8712 7.2949,3.7012 z"
           style="fill:#004394;fill-rule:evenodd"
           id="path44" />
        <path
           d="m 580.1438,252.7604 1.903,0.2123 c 3.9118,0.2123 6.8729,0.6335 8.88,1.0581 1.9047,0.5277 3.5954,1.2678 5.0747,2.4308 1.4818,1.1629 2.6431,2.6431 3.5955,4.5469 0.8458,1.7973 1.2678,3.8061 1.0564,5.9197 -0.1041,2.4317 -0.9507,4.5453 -2.3259,6.3435 -1.3736,1.903 -3.2767,3.2782 -5.496,4.124 3.066,1.0556 5.2853,2.748 6.7655,5.0739 1.4793,2.2194 2.1136,4.8642 1.903,7.7179 -0.1049,2.3259 -0.8466,4.5453 -2.0096,6.5557 -1.267,2.1136 -2.7471,3.6995 -4.7576,4.8625 -1.9013,1.1629 -4.2272,1.7973 -6.9777,2.0095 -1.2679,0 -3.8061,-0.1065 -7.6113,-0.3188 v -8.4571 c 2.7488,0.2115 4.5453,0.2115 5.3911,0.1058 1.4801,-0.2123 2.7496,-0.7401 3.806,-1.7965 1.0581,-0.9524 1.5859,-2.3276 1.6924,-4.1232 0.1058,-1.5859 -0.1065,-2.8563 -0.74,-3.9118 -0.7401,-1.1638 -1.6924,-2.0104 -3.066,-2.5382 -1.163,-0.5278 -3.4889,-0.9515 -7.0835,-1.2671 v -8.4595 c 2.3259,0.2114 3.8052,0.2114 4.5453,0.2114 1.7981,-0.1065 3.1717,-0.6343 4.2306,-1.4801 1.0556,-0.9524 1.6907,-2.2202 1.7965,-3.9118 0.1049,-1.4801 -0.2106,-2.8537 -1.0573,-3.8061 -0.7392,-1.0564 -2.0096,-1.6924 -3.7003,-2.0079 -0.7401,-0.2114 -2.7488,-0.4237 -5.8148,-0.6352 z m -18.1837,-1.2678 18.1837,1.2678 v 8.4587 c -0.8466,-0.1057 -1.7982,-0.1057 -2.8537,-0.2106 l -5.8157,-0.4245 -0.8458,11.6296 6.6615,0.5303 c 1.0555,0 2.0071,0.1049 2.8537,0.1049 v 8.4595 c -0.6344,0 -1.2695,-0.1065 -1.903,-0.1065 l -8.14,-0.5295 -0.9523,13.427 9.4094,0.6335 c 0.5278,0 1.0581,0.1065 1.5859,0.1065 v 8.4571 c -1.3744,0 -2.9603,-0.1049 -4.6519,-0.2106 l -17.0207,-1.2695 z"
           style="fill:#004394;fill-rule:evenodd"
           id="path46" />
      </g>
      <path
         d="m 560.7972,725.7706 c 104.9829,0 190.725,-85.7429 190.725,-190.9381 0,-105.0887 -85.7421,-190.725 -190.725,-190.725 -105.1961,0 -190.9373,85.6363 -190.9373,190.725 0,105.1952 85.7412,190.9381 190.9373,190.9381 z"
         style="fill:#d20016;fill-rule:evenodd"
         id="path49" />
      <path
         d="m 441.5398,679.357 c 78.8708,-27.6997 161.1232,-25.1623 248.556,-0.7401 2.3259,15.648 26.9604,19.1369 39.4358,11.7354 20.8276,-17.6559 47.3643,-50.7466 52.2284,-82.0417 0.3155,-13.0032 -7.8236,-23.6822 -25.2697,-30.8706 -2.3259,-1.058 -3.4872,0 -5.9197,0.7401 -6.6614,-9.3037 -12.3688,-5.287 -18.1853,-1.3752 -3.5938,4.1232 -7.5056,8.2473 -9.62,13.6383 -2.1153,5.8148 -0.8467,4.4396 -5.6026,0.2123 -4.0183,-3.4897 -7.6129,-5.7099 -11.6296,-8.0358 13.2155,-11.2068 18.6066,-25.5852 17.9714,-42.6059 -0.4229,-10.4683 -4.2281,-19.032 -10.1478,-27.171 -2.2211,-3.066 -1.5859,-7.2958 -0.7418,-10.8896 12.582,-6.3443 21.6751,-24.3173 12.2648,-40.1759 -1.7981,-2.9611 -4.9698,-5.1805 -8.0358,-6.7663 -5.0731,-2.748 -10.2552,-2.3259 -15.1185,-0.8466 -6.6606,-8.3514 -14.2719,-12.3689 -22.9421,-11.9452 0.6344,-11.6304 -5.2854,-14.8013 -11.4173,-16.0717 -13.0041,-2.6414 -23.4707,6.1337 -21.7791,20.2998 -3.5947,4.1241 -5.8157,7.9293 -8.3531,11.9477 -1.6899,2.6431 -3.8052,3.5938 -8.2464,3.9118 -3.6995,0.3155 -5.1797,-1.3753 -6.0255,-4.0184 -1.058,-3.384 0,-5.1805 1.3736,-8.0358 10.5732,-22.3069 12.2648,-45.5653 4.8642,-69.9892 -2.644,-4.6519 5.4976,-11.2051 7.19,-16.4921 5.0731,-15.1185 -6.6623,-29.1798 -25.1631,-30.237 -6.7655,-0.4229 -13.7433,2.5373 -20.9333,7.1892 -14.0613,-6.9778 -25.7966,-6.3443 -38.5892,-1.0572 -26.8539,-16.0701 -47.6807,-10.783 -63.1163,4.8624 -10.043,11.1019 -12.264,29.288 -2.2211,43.3476 -11.523,19.9827 -6.9778,37.1099 -0.9507,54.9773 -27.5947,12.3697 -49.0558,25.4786 -66.2896,47.5749 -16.493,21.8848 -17.5485,44.404 -9.1972,67.5583 2.8537,6.4492 6.2377,12.8975 11.1018,18.923 -4.8641,6.6622 -13.5343,21.3578 -17.3395,10.6797 -0.5278,-1.3744 -1.4801,-2.6439 -2.2202,-4.0175 -6.9778,-7.8235 -15.4349,-8.0358 -24.8451,-2.8554 -10.783,0.9507 -19.3466,6.9778 -25.9032,17.9723 -1.7965,3.0676 -2.5365,5.3935 -2.8537,8.9882 -0.5286,9.5143 3.1726,17.8673 6.9778,26.8522 6.5549,15.5414 18.5017,35.1011 32.3506,50.009 8.1424,8.7751 19.5598,11.4173 30.8722,10.0429 7.4007,-0.6335 13.3204,-5.8148 16.9167,-10.0429 2.5365,-3.066 2.7471,-3.8061 6.5532,-5.1813 z"
         style="fill:#004394;fill-rule:evenodd"
         id="path51" />
      <path
         d="m 500.1117,391.2595 c -11.1019,-10.6773 -19.6655,-30.9771 -4.4396,-43.5582 16.1749,-13.3221 42.8165,-15.2234 50.6409,5.287 0.6352,1.5842 1.2687,3.0651 2.0087,4.6518 2.1137,2.1145 2.8537,-0.8466 2.7489,-2.3259 -0.8458,-18.3968 25.7949,-13.0049 36.6845,-10.256 -0.1058,1.7964 -0.4213,2.9611 -3.3832,5.8148 -2.8545,2.5382 0.3172,2.2193 2.9619,1.3736 8.3514,-2.8538 10.465,-7.9285 19.1344,-10.3593 8.4579,-2.0104 14.1678,0.7401 18.5017,5.4985 5.1821,5.8131 5.8156,11.6287 2.221,18.818 -1.6907,8.0342 -5.7091,2.43 -9.8332,-1.5867 -2.5365,-2.4317 -10.5707,-4.2281 -6.3434,1.1629 18.8189,17.0216 17.4453,50.9598 11.7354,66.9241 -1.7965,5.1796 -3.4873,8.0342 -4.5453,-0.2123 0.5278,-7.7178 -2.6431,-10.6773 -5.6042,-14.5891 -1.9014,-4.8641 -2.1137,-8.7759 -0.3155,-11.5239 6.6589,-3.2782 1.5842,-5.6042 -3.0677,-8.7759 -4.2281,-2.8537 -2.2194,-1.903 -6.2377,0 -2.3259,1.163 -4.9682,1.2695 -7.9285,0.9524 -2.7496,-0.318 -2.9611,2.0079 0.1066,3.066 7.717,2.4316 13.0032,12.1574 15.012,18.1836 3.066,9.3037 2.1153,15.5414 -2.2211,19.3475 -7.2949,6.2377 -16.3872,6.3443 -25.0557,4.3347 -10.9953,-2.4317 -18.7123,-9.3037 -23.6813,-21.2514 -2.9594,-3.9117 -5.4976,-2.4308 -8.1407,1.0581 -4.8625,5.9197 2.7488,17.8674 6.027,10.9961 1.2679,-4.124 4.5453,-2.0087 4.9674,1.0564 1.6916,11.101 7.613,18.1845 19.3458,16.9167 4.8641,0.5278 5.183,3.3815 2.4325,4.8625 -10.5716,5.3919 -25.1615,-4.6519 -26.4301,-12.4755 -1.1613,-2.4308 -4.2273,-1.1629 -3.3832,2.9611 2.2219,5.7075 5.6042,11.4174 16.8109,17.5494 8.4563,2.2193 17.9722,1.4801 23.6813,-3.8061 4.8625,-5.6034 7.5064,-11.1018 13.5318,-15.1185 7.7179,-8.6694 14.3785,-3.9118 7.8244,3.2766 -0.3171,0.3188 -0.6343,0.636 -0.8466,0.9524 -2.5365,2.7488 -5.6033,8.4579 0.6344,9.5159 3.8069,1.6908 2.4316,4.5453 -0.6344,6.8712 -10.783,8.0351 -11.2059,29.497 4.3355,31.9295 3.8069,2.0071 0.2106,5.7082 -4.5461,5.4976 -10.9953,-0.5294 -17.3379,-6.9777 -22.6249,-11.8419 -10.2544,-9.62 -10.9944,6.132 -18.9246,-4.4395 -4.3338,-7.4024 -17.7599,-3.8061 -22.942,1.2678 -4.7568,3.5946 -6.7655,7.2958 -7.9285,10.9953 -2.6431,8.4579 1.163,18.5017 11.1002,19.5597 1.058,1.0564 1.7981,2.1137 -0.8458,4.2273 -7.6121,5.4977 -15.0111,10.0446 -22.0955,13.9572 -5.6033,2.6423 -9.0922,-0.2114 -12.5811,-3.3831 -3.2783,-2.8554 -3.066,-2.4317 -2.4325,-6.9778 1.163,-8.6694 -5.1796,-12.3697 -10.0429,-14.3801 -5.1797,-1.6899 -8.9874,-2.2194 -13.3221,-2.6414 -4.2289,-0.4238 -3.8052,0.1048 -2.9594,-4.2298 0.2123,-1.2679 0.5278,-2.4317 0.9523,-3.5938 3.3824,-8.353 -7.6129,5.4976 -15.3307,14.6956 -11.7354,14.0613 -13.8507,37.0025 12.686,39.9636 2.3259,0.2106 2.7488,0 4.124,2.0088 2.5366,4.0175 0.4221,5.7082 -7.19,5.1796 -2.3259,0.5286 -6.3434,1.2687 -1.5859,3.384 2.7489,0.6335 5.4985,1.2679 8.3531,2.0079 5.1813,3.2775 1.0572,10.6781 -6.4484,7.0835 -5.4976,-0.3171 -6.5565,0.7401 -3.1717,3.066 2.7472,0.6335 5.4977,1.2687 8.1391,1.9039 4.8641,2.9603 3.1717,9.0914 -5.7091,6.6598 -5.2854,-0.6344 -4.6519,0.6335 -2.9594,2.1153 1.2686,0.104 2.4308,0.3163 3.7011,0.4229 5.496,2.007 2.9595,8.7742 -2.5382,7.1884 -15.2242,1.3752 -31.9286,-5.1814 -50.3237,-21.3563 -15.2259,-17.5493 -25.6909,-37.6377 -13.7458,-69.5663 11.5248,-24.4222 39.6465,-43.6631 73.3732,-60.1568 3.4889,7.8244 9.516,15.1185 16.1749,19.7703 1.9047,1.2695 -1.7964,-4.0167 -4.2289,-6.9778 -11.6296,-14.1661 -16.2807,-31.3991 -16.1749,-51.5924 0,-4.124 -1.163,-10.3617 3.4889,-12.3697 1.6924,-0.6351 3.9117,-0.9523 6.5548,-0.8457 6.5549,0.2106 7.8236,0.74 2.7489,-4.1241 z"
         style="fill:#ffffff;fill-rule:evenodd"
         id="path53" />
      <path
         d="m 384.7661,589.2803 c -1.0556,-8.9866 7.4015,-4.547 8.9874,2.4308 1.5866,6.9778 4.4404,13.5343 6.554,20.1932 6.9778,17.9739 15.4365,33.7268 25.7966,48.2101 1.9047,2.7505 3.7012,4.9699 4.2306,8.4588 1.3736,11.5247 -8.4595,18.0787 -15.5414,19.0303 -14.8013,1.7981 -28.6528,-14.2736 -37.2164,-26.9588 -10.043,-14.9071 -17.4436,-30.3427 -21.8832,-47.9986 -0.4246,-5.287 1.3736,-6.6615 5.2854,-5.287 3.5937,1.2686 2.9594,2.1144 2.3259,-1.9022 -1.6924,-10.1495 2.6431,-12.9 6.0254,-5.71 2.4325,1.0581 3.066,-0.2122 3.4906,-2.4316 -1.7982,-12.3697 6.2377,-12.1574 8.7742,-1.4801 4.969,4.0183 3.3832,-4.5453 3.1709,-6.5549 z"
         style="fill:#ffffff;fill-rule:evenodd"
         id="path55" />
      <path
         d="m 427.69,581.4567 c -4.8641,5.287 -8.3514,11.7362 -16.0692,16.8109 -3.4897,4.4396 -4.1241,9.6201 -1.7981,15.3292 3.2782,12.0533 10.5732,27.489 26.8546,50.536 2.3251,3.066 6.1329,4.6518 13.0041,3.1717 75.8031,-22.8364 152.875,-21.5669 231.3221,1.6924 5.4977,0.9515 10.1495,-0.4237 12.9,-6.7672 6.9778,-13.7449 13.849,-27.3816 20.721,-41.02 3.4889,-10.5732 2.9595,-17.2338 -1.2678,-19.9826 -4.547,-2.9595 -8.4588,-6.45 -12.582,-10.0438 -2.7496,-3.9118 -5.9205,-3.1717 -9.516,-2.1136 -13.3212,3.806 -28.3331,2.0079 -37.8475,1.3735 -14.1678,0 -23.1543,7.295 -32.6695,13.9556 -9.0922,8.1407 -18.1853,15.6479 -27.2767,22.9421 -21.5677,12.159 -65.1242,14.8013 -84.5774,3.5954 -14.1679,-11.2084 -18.8197,-17.9739 -23.1544,-24.6345 -27.8062,-1.2687 -45.1441,-11.8402 -58.0432,-24.8451 z"
         style="fill:#ffffff;fill-rule:evenodd"
         id="path57" />
      <path
         d="m 733.8654,586.5315 c 3.8061,-6.8713 11.7354,-8.6694 8.8817,5.8148 -0.318,1.903 0.3171,2.5365 2.1136,1.7973 3.5955,-10.5716 12.6877,-12.8975 10.1503,-2.1137 -1.3744,4.651 -2.1144,8.6694 2.7489,7.6113 4.2281,-6.2377 10.0429,-8.7742 6.2377,4.4412 -0.7401,2.6423 -0.1066,3.9118 1.2687,4.3347 2.1136,0.6335 1.903,-0.6343 2.9602,-2.1153 6.2377,-9.7266 7.2958,2.4325 5.9206,6.5549 -11.419,32.8809 -26.7482,50.1139 -37.85,62.7991 -11.1002,13.0049 -20.9325,13.3221 -30.3428,9.0939 -9.62,-4.8632 -8.3513,-13.7457 -4.333,-22.7306 7.5048,-14.485 15.012,-28.9691 22.5184,-43.4525 3.2774,-10.6789 6.554,-21.3579 9.7257,-32.0351 z"
         style="fill:#ffffff;fill-rule:evenodd"
         id="path59" />
      <path
         d="m 603.721,428.6857 c 0.2107,4.6519 -3.8077,8.6702 -9.0947,8.9866 -5.2854,0.3171 -9.7249,-2.9611 -9.9372,-7.613 -0.2106,-6.3418 3.066,-7.0835 6.6606,-5.2853 1.0572,0.4229 2.1153,0.6335 3.2766,0.6335 0.9523,-0.1041 1.9047,-0.3155 2.7505,-0.8458 3.3831,-2.1137 5.9197,-1.5859 6.3442,4.124 z"
         style="fill:#004394;fill-rule:evenodd"
         id="path61" />
      <path
         d="m 670.6426,438.4123 c -0.5286,-4.0166 -4.5453,-6.9777 -9.1972,-6.4483 -10.3601,1.1613 -8.4587,16.5978 -1.2687,11.3108 0.8458,-0.6335 2.1137,-0.5278 3.1718,-0.6335 2.8537,-0.3172 8.2456,1.4801 7.2941,-4.229 z"
         style="fill:#ffffff;fill-rule:evenodd"
         id="path63" />
      <path
         d="m 515.5465,559.6776 c 15.648,-15.1185 27.8054,-21.884 41.1266,-30.1321 8.1424,-6.1312 12.1591,-2.2194 15.7528,3.066 6.6598,7.6129 12.582,15.0136 32.0352,27.2767 6.9778,2.4325 13.9547,3.1726 20.9325,2.1153 4.5461,0 4.6518,-3.9118 0.1066,-4.969 -23.5773,-1.9039 -42.1847,-18.5008 -54.1315,-37.954 -1.5859,-2.7505 -2.748,-8.0359 1.163,-7.0835 3.066,0.8458 2.0079,1.3735 1.1621,-2.0096 -1.0556,-4.8625 0.9515,-6.4483 3.4897,-5.6025 1.4801,0.5277 2.9603,2.7479 2.748,-0.2123 -0.1049,-0.5286 -0.1049,-1.1622 -0.3155,-1.9039 -0.5303,-2.7471 1.9014,-11.3116 6.8712,2.5382 1.0573,0.9524 2.5366,1.2687 2.1137,-0.1065 -1.5859,-5.4977 1.9047,-10.2544 8.5636,-2.4317 10.8895,12.4754 26.431,26.431 51.2761,25.1631 4.124,-0.2123 8.0358,-0.74 11.5239,-2.5382 9.0922,-4.6518 9.8339,-5.9189 -0.9507,-4.4396 -14.5907,2.0096 -25.1623,0.4229 -32.9859,-4.4395 -3.1717,-2.0104 -11.6296,-7.613 -2.3259,-8.2482 9.8315,1.0581 20.8268,-14.9062 5.0748,-14.9062 -2.8554,0 -5.7091,0 -8.5637,0 -6.4483,0.4229 -7.0843,-5.0747 -4.6518,-7.2941 1.5858,-1.2695 3.1709,-2.5382 4.6518,-3.8061 4.1224,-3.1717 1.9031,-4.7575 -1.2695,-6.027 -3.8052,-2.326 -0.6335,-7.4007 5.0748,-7.0827 2.5373,0.1049 4.1232,0.8449 6.8737,0.4221 2.3259,-0.4221 4.333,-1.163 5.6025,-3.1718 4.4404,-8.6702 11.6296,-14.4833 21.7791,-17.4444 7.717,-2.3259 17.8673,-1.4801 29.0732,0.8458 5.4985,1.6907 6.45,6.2377 2.9603,13.6384 6.7663,-2.7489 13.9556,-4.5453 23.0495,-0.4229 12.5803,13.4261 6.132,21.7791 -2.9611,29.4969 -3.7012,1.7965 -8.4588,1.6924 -13.3221,1.2687 7.7195,9.198 2.9611,17.6559 -4.3346,29.1806 -7.0835,11.1002 -9.1972,9.8323 -17.7608,11.1002 -21.0399,2.9594 -34.6783,17.0215 -30.7665,37.4262 1.3753,3.7004 -1.7965,8.0359 -9.4078,12.7926 -13.9555,10.2544 -26.8555,21.0391 -38.4851,32.4581 -21.3546,19.5581 -75.168,21.2497 -94.304,0.4221 -9.3037,-7.5056 -10.9945,-15.4357 -4.7584,-24.6329 6.7671,-9.7266 5.8148,-19.454 1.7973,-29.1806 -2.2202,-9.3029 0.5286,-15.2242 5.1821,-19.8761 3.6995,-3.8052 5.7074,-5.0747 11.0985,-3.9118 4.9707,0.9524 6.7689,7.5073 3.1726,13.0032 -1.3736,1.5859 -1.7973,2.4325 -3.1726,4.0184 -1.4793,2.6439 -0.9507,3.384 0.2123,3.5946 z"
         style="fill:#ffffff;fill-rule:evenodd"
         id="path65" />
      <path
         d="m 645.1631,472.5611 c 4.2298,-6.0271 14.3793,-3.1708 13.2155,6.4484 -0.6343,2.0104 -2.4308,2.8562 -4.1216,2.5382 -2.0104,-0.3172 -2.4324,-0.9524 -3.4905,-1.9031 -0.3172,-0.3163 -0.8458,-0.5286 -1.3736,-0.6351 -3.6995,-0.7401 -6.132,-1.7965 -4.2298,-6.4484 z"
         style="fill:#004394;fill-rule:evenodd"
         id="path67" />
      <path
         d="m 569.9951,492.965 c 3.3832,2.1162 2.3243,5.0764 0.6335,6.2377 -5.8131,3.384 -6.4483,10.4683 -7.3998,17.3396 -0.4237,2.2202 -2.4316,2.9602 -4.7576,2.0087 -2.4316,-0.8458 -3.806,-2.8545 -6.132,-3.9118 -3.8052,-1.9022 -4.2297,-8.4587 1.5867,-7.2941 2.43,0.3164 1.5859,-1.5858 0.6335,-1.9047 -6.4499,-1.3736 -5.7099,-7.0818 -0.6335,-6.5532 2.0071,0.2106 1.6908,0.6344 0.7393,-1.1638 -1.6916,-3.2774 0.3155,-5.1796 3.5937,-3.3831 1.3753,0.7409 0.9524,0.6351 0.6344,-0.7401 -0.9515,-4.547 1.0581,-5.8148 5.9222,-3.9118 2.1136,0.7401 3.2766,2.5365 5.1796,3.2766 z"
         style="fill:#ffffff;fill-rule:evenodd"
         id="path69" />
      <path
         d="m 549.8019,547.4128 c 7.1892,-7.2933 13.3212,-10.783 17.8673,-8.3514 13.0024,6.6606 19.0286,20.7228 11.8402,35.2069 3.3832,7.399 6.0255,16.3872 4.4396,25.4786 -1.0564,5.4985 -3.3823,9.4103 -4.1224,2.7489 -0.4229,-2.6423 -2.6431,-19.6638 -8.6693,-15.8578 -6.4484,6.4483 -13.6384,11.5231 -22.6233,15.9626 -10.4683,5.1822 -32.0351,3.384 -32.458,-11.523 -1.0573,-6.3443 0.8449,-12.4754 8.7742,-18.1845 9.198,-8.1408 19.6655,-15.8586 24.9517,-25.4803 z"
         style="fill:#004394;fill-rule:evenodd"
         id="path71" />
      <path
         d="m 571.8973,565.0695 c 4.2281,-2.3259 6.977,1.163 4.3347,5.0748 -8.6694,8.6701 -11.2059,14.589 -30.5542,24.8451 -2.1136,1.1629 -6.9778,3.1717 -9.5151,3.2782 -9.9381,0.5278 -15.7521,-12.2639 -7.8219,-19.2417 6.6589,-5.9222 12.7909,-11.6305 20.1932,-19.2417 2.8537,-3.0677 5.2854,-6.7672 7.6113,-10.679 3.1717,-3.1717 6.3443,-2.0079 5.4976,2.0088 1.4802,0 10.6765,-4.3347 5.392,7.5072 6.2368,-5.0748 9.1971,0.2106 4.8624,6.4483 z"
         style="fill:#ffffff;fill-rule:evenodd"
         id="path73" />
      <path
         d="m 647.9128,494.7631 c 0.422,4.7585 -1.3753,7.2958 -4.2298,8.2473 -2.9603,0.9507 1.1638,3.0652 3.7012,1.1622 7.4006,-5.6034 0.8457,-14.167 0.5286,-9.4095 z"
         style="fill:#004394;fill-rule:evenodd"
         id="path75" />
      <path
         d="m 478.1203,521.617 c 2.3259,-3.8052 4.6518,0 4.5469,2.9611 0.7401,0.3155 2.4308,-0.318 2.8554,-3.5963 0.8441,-3.9118 5.3911,-3.066 5.8131,0.8467 0.1058,2.9611 1.1647,3.9117 2.326,0.4237 1.9038,-5.6034 4.7575,-5.0756 5.9205,0.5278 0,3.066 2.1153,1.903 3.1726,0.2122 2.6422,-4.4412 4.9681,-2.1153 4.2281,2.8538 -0.9515,4.124 -3.0652,6.9777 -8.1408,12.159 -2.5365,3.2766 -3.7003,6.1312 -4.7559,8.9866 -2.4325,6.8712 -9.6225,4.1224 -15.6479,0.74 -3.8053,-3.2782 -4.3347,-8.2473 -4.2298,-12.3697 0.6352,-4.7584 1.4793,-9.7282 3.9118,-13.7449 z"
         style="fill:#ffffff;fill-rule:evenodd"
         id="path77" />
      <path
         d="m 700.8813,535.7832 c -0.3189,2.0104 -1.1647,2.9611 -4.7584,3.066 -9.8324,0.6351 -17.9731,1.9047 -27.8063,2.5382 -4.9681,0.8458 -6.4483,3.1717 -7.2941,5.6042 -1.4801,1.7964 -2.1136,3.4872 2.6423,5.2853 6.4492,-0.2123 3.1725,1.6924 1.7973,3.2783 -2.1136,0.6335 -4.2273,1.2679 -6.4483,1.903 -5.6026,0.5286 -4.229,4.4404 -1.3753,5.496 2.1145,0.2123 4.2298,0.4246 6.2377,0.7401 2.8546,0.5303 3.1718,3.1717 -0.5277,4.2306 -1.4802,-0.2123 -3.4889,0.6335 -4.8642,0.4212 -6.872,0.5303 -3.4872,5.7099 0,5.3928 1.3753,0 2.8554,0 4.2298,0 3.5938,0.5294 4.0167,1.4801 1.3744,2.9611 -1.3744,0.5278 -2.7488,1.0555 -4.124,1.4801 -5.6026,2.5365 -0.6344,5.7091 5.0755,6.0254 4.3339,0.2123 9.7258,-2.6439 13.9556,-3.0651 14.0621,-1.5867 24.6328,-8.6702 31.6106,-22.3086 5.287,-11.9468 4.5461,-23.7879 -0.5278,-35.7347 -3.384,-4.969 -5.9205,-5.1813 -7.8236,-0.3171 -0.2122,1.3744 -1.3735,2.8537 -2.6439,4.2289 -6.6598,5.1813 1.5859,6.2377 1.2704,8.7743 z"
         style="fill:#ffffff;fill-rule:evenodd"
         id="path79" />
      <path
         d="m 507.4058,371.5949 c -1.5859,-10.9937 7.1892,-19.5581 19.9826,-17.0224 4.8625,0.9523 2.0079,1.9047 -0.5286,3.4905 -5.9214,3.6995 -11.101,7.9293 -15.1185,12.7926 -1.6924,2.2194 -3.6995,5.7083 -4.3355,0.7393 z"
         style="fill:#004394;fill-rule:evenodd"
         id="path81" />
      <path
         d="m 561.4307,405.4265 c 1.7981,0.3172 3.066,0.3172 3.066,-1.9022 0.4228,-15.648 -16.2815,-14.9079 -15.5415,0.2106 0.1066,2.0088 1.7982,2.1153 3.4889,1.6916 3.8078,-0.8458 5.0748,-0.9515 8.9866,0 z"
         style="fill:#004394;fill-rule:evenodd"
         id="path83" />
    </g>
  </g>
</svg>
